<svg id="Layer_1" data-name="Layer 1" xmlns="http://www.w3.org/2000/svg" viewBox="0 0 126 41.42"><defs><style>.cls-1{fill:#468e87;fill-rule:evenodd;}.cls-2{fill:#fff;}.cls-3{fill:#1a1818;}</style></defs><title>Artboard 1</title><path class="cls-1" d="M17.48,41.25.62,31.51A1.23,1.23,0,0,1,0,30.45V11A1.23,1.23,0,0,1,.62,9.9L17.48.16a1.23,1.23,0,0,1,1.23,0L35.58,9.9A1.23,1.23,0,0,1,36.2,11V30.45a1.23,1.23,0,0,1-.62,1.07L18.71,41.25A1.23,1.23,0,0,1,17.48,41.25Z"/><path class="cls-2" d="M26.48,17.3a.49.49,0,0,1-.49-.49A7.9,7.9,0,0,0,18.1,8.92a.49.49,0,0,1,0-1A8.89,8.89,0,0,1,27,16.81.49.49,0,0,1,26.48,17.3Z"/><path class="cls-2" d="M24.51,17.3a.49.49,0,0,1-.49-.49,5.92,5.92,0,0,0-5.92-5.92.49.49,0,0,1,0-1,6.91,6.91,0,0,1,6.9,6.9A.49.49,0,0,1,24.51,17.3Z"/><path class="cls-2" d="M22.54,17.3a.49.49,0,0,1-.49-.49,4,4,0,0,0-3.94-3.94.49.49,0,0,1,0-1A4.94,4.94,0,0,1,23,16.81.49.49,0,0,1,22.54,17.3Z"/><path class="cls-2" d="M26.68,19.08A7.89,7.89,0,0,1,15.82,8.23a8.88,8.88,0,0,0-5.27,13.25L18.1,33.57l7.58-12.15h0A8.83,8.83,0,0,0,26.68,19.08Z"/><polygon class="cls-3" points="44.75 12.7 50.91 12.7 50.91 30.57 52.88 30.57 52.88 12.7 59.17 12.7 59.17 10.85 44.75 10.85 44.75 12.7"/><path class="cls-3" d="M65.43,16.1a1.82,1.82,0,0,0-.34,0,4.42,4.42,0,0,0-3.67,2.18l0-1.85H59.51v.32q0,.51,0,1c0,1,.1,2,.1,3v9.78h2V22.8a9.11,9.11,0,0,1,.08-1.25C62.08,19.39,63.36,18,65,18a2.23,2.23,0,0,1,.58,0l.38.09v-2l-.27,0Z"/><path class="cls-3" d="M77.29,27.08v-5.3a7,7,0,0,0-.9-3.77,4.48,4.48,0,0,0-4.06-1.92A7.65,7.65,0,0,0,68.2,17.3l-.21.14L68.68,19l.31-.23a5.58,5.58,0,0,1,3.25-1,3.06,3.06,0,0,1,2.27.77,4,4,0,0,1,.93,2.95v0c-3.29,0-5.65.7-7,2.07a4.38,4.38,0,0,0-1.3,3.23,4.14,4.14,0,0,0,1.05,2.77A4.25,4.25,0,0,0,71.41,31a5.56,5.56,0,0,0,4.18-1.85l.16,1.46h1.85l-.05-.35A22.4,22.4,0,0,1,77.29,27.08Zm-1.85-3.75v2.62a2.78,2.78,0,0,1-.15.73,3.8,3.8,0,0,1-3.74,2.51,2.29,2.29,0,0,1-2.4-2.53,2.62,2.62,0,0,1,.78-2c.92-.89,2.66-1.34,5.18-1.34Z"/><path class="cls-3" d="M87.5,17.86a6.32,6.32,0,0,1,3.09.76l.3.16.72-1.65L91.38,17a7.35,7.35,0,0,0-3.75-.9c-4.32,0-7.34,3.11-7.34,7.57a7.51,7.51,0,0,0,1.88,5.24,6.6,6.6,0,0,0,5,2A9,9,0,0,0,91.27,30l.24-.12-.57-1.61-.33.14a7.67,7.67,0,0,1-3.25.73c-3,0-5.08-2.23-5.08-5.56C82.28,20.73,83.89,17.86,87.5,17.86Z"/><path class="cls-3" d="M104.56,16.39h-2.51l-4.88,5.14c-.24.26-.53.58-.8.89l-.1.11V9.86H94.42V30.57h1.85V24.76l1.08-1.15,5.45,7h2.43l-6.49-8.23Z"/><path class="cls-3" d="M118.47,30.12a25.54,25.54,0,0,1-1.39-5.05,5.58,5.58,0,0,0-2.51-4,5.25,5.25,0,0,0,3.31-5,5.09,5.09,0,0,0-1.43-3.63c-1.2-1.14-2.92-1.67-5.39-1.67a22.34,22.34,0,0,0-4.19.4l-.25.05V30.57h2V21.82h2.68c2.32.12,3.44,1.2,4,3.86a24.48,24.48,0,0,0,1.25,4.73l.09.15h2.11ZM115.9,16.26c0,2.33-1.79,3.84-4.56,3.84H108.6V12.67a13.61,13.61,0,0,1,2.45-.2C113.26,12.48,115.9,13.13,115.9,16.26Z"/><path class="cls-3" d="M121.4,28.22v2.4h-.48v-2.4h-.86v-.44h2.2v.44Zm2.86,2.16-1-2v2.21h-.48V27.79h.75l.85,1.78.86-1.78H126v2.84h-.48V28.41l-1,2Z"/></svg>